<svg 
 xmlns="http://www.w3.org/2000/svg"
 xmlns:xlink="http://www.w3.org/1999/xlink"
 width="37px" height="38px">
<path fill-rule="evenodd"  fill="rgb(163, 187, 200)"
 d="M35.488,11.991 L18.4,29.631 C17.893,29.743 17.756,29.823 17.607,29.865 C17.607,29.865 11.915,31.458 11.911,31.460 C11.882,31.467 11.684,31.490 11.684,31.490 L7.59,31.490 C6.561,31.490 6.157,31.82 6.157,30.579 C6.157,30.77 6.561,29.669 7.59,29.669 L10.998,29.669 L12.392,24.604 C12.434,24.453 12.513,24.315 12.624,24.203 L12.638,24.189 L7.59,24.189 C6.561,24.189 6.157,23.781 6.157,23.278 C6.157,22.776 6.561,22.368 7.59,22.368 L14.443,22.368 L19.874,16.888 L7.59,16.888 C6.561,16.888 6.157,16.481 6.157,15.978 C6.157,15.475 6.561,15.67 7.59,15.67 L21.680,15.67 L30.108,6.564 C31.299,5.363 33.236,5.363 34.426,6.564 L35.488,7.635 C36.679,8.836 36.679,10.790 35.488,11.991 ZM13.717,26.595 L12.981,29.271 L15.633,28.528 L13.717,26.595 ZM28.971,10.287 L14.538,24.848 L17.365,27.701 L31.799,13.139 L28.971,10.287 ZM34.212,8.922 L33.150,7.851 C32.907,7.605 32.587,7.483 32.267,7.483 C31.947,7.483 31.627,7.605 31.384,7.851 L30.248,8.999 L33.75,11.852 L34.212,10.704 C34.699,10.213 34.699,9.414 34.212,8.922 ZM28.542,6.13 C28.43,6.13 27.639,5.605 27.639,5.103 L27.639,2.230 C27.639,2.135 27.564,2.60 27.472,2.60 L9.283,2.60 L9.283,7.612 C9.283,8.709 8.397,9.602 7.309,9.602 L1.806,9.602 L1.806,35.968 C1.806,36.62 1.882,36.138 1.975,36.138 L27.472,36.138 C27.564,36.138 27.639,36.62 27.639,35.968 L27.639,22.67 C27.639,21.564 28.43,21.157 28.542,21.157 C29.40,21.157 29.444,21.564 29.444,22.67 L29.444,35.968 C29.444,37.66 28.559,37.960 27.471,37.960 L1.975,37.960 C0.887,37.960 0.1,37.66 0.1,35.968 L0.1,8.691 C0.1,8.450 0.97,8.218 0.266,8.47 L7.742,0.505 C7.911,0.334 8.141,0.238 8.380,0.238 L27.472,0.238 C28.559,0.238 29.444,1.132 29.444,2.230 L29.444,5.103 C29.444,5.605 29.40,6.13 28.542,6.13 ZM7.478,3.347 L3.83,7.781 L7.309,7.781 C7.402,7.781 7.478,7.705 7.478,7.611 L7.478,3.347 Z"/>
</svg>