<svg 
 xmlns="http://www.w3.org/2000/svg"
 xmlns:xlink="http://www.w3.org/1999/xlink"
 width="44px" height="40px">
<path fill-rule="evenodd"  fill="rgb(163, 187, 200)"
 d="M37.869,21.953 L37.869,29.78 C37.869,29.863 37.476,30.568 36.817,30.965 C36.481,31.168 36.109,31.270 35.737,31.270 C35.378,31.270 35.20,31.176 34.691,30.987 C28.730,27.563 22.283,25.466 15.505,24.743 L19.664,36.527 C19.900,37.191 19.804,37.934 19.410,38.513 C19.14,39.93 18.368,39.438 17.679,39.438 L12.821,39.438 C11.935,39.438 11.137,38.865 10.835,38.10 L5.994,24.288 C4.963,23.819 4.212,22.817 4.75,21.624 L2.715,21.624 C1.225,21.624 0.13,20.379 0.13,18.849 L0.13,12.754 C0.13,11.224 1.225,9.980 2.715,9.980 L4.75,9.980 C4.266,8.322 5.642,7.31 7.306,7.31 C7.306,7.31 13.934,7.1 13.991,6.997 C21.324,6.438 28.289,4.291 34.691,0.613 C35.361,0.228 36.157,0.236 36.817,0.635 C37.476,1.31 37.869,1.737 37.869,2.521 L37.869,9.647 C40.833,10.41 43.132,12.649 43.132,15.800 C43.132,18.950 40.833,21.558 37.869,21.953 ZM4.52,12.119 L2.715,12.119 C2.374,12.119 2.97,12.404 2.97,12.754 L2.97,18.849 C2.97,19.199 2.374,19.484 2.715,19.484 L4.52,19.484 L4.52,12.119 ZM12.977,9.170 L7.306,9.170 C6.660,9.170 6.135,9.710 6.135,10.373 L6.135,21.230 C6.135,21.718 6.420,22.139 6.829,22.327 C6.979,22.393 7.23,22.404 7.232,22.429 C7.257,22.430 12.977,22.433 12.977,22.433 L12.977,9.170 ZM13.229,24.572 L8.310,24.572 L12.793,37.280 C12.797,37.291 12.808,37.299 12.820,37.299 L17.679,37.299 C17.687,37.299 17.694,37.299 17.703,37.285 C17.712,37.272 17.710,37.266 17.707,37.257 L13.229,24.572 ZM35.786,2.521 C35.786,2.506 35.786,2.493 35.763,2.480 C35.737,2.464 35.721,2.473 35.707,2.481 C29.305,6.158 22.363,8.366 15.60,9.52 L15.60,22.549 C22.362,23.234 29.305,25.441 35.708,29.119 C35.721,29.127 35.737,29.136 35.763,29.120 C35.786,29.106 35.786,29.94 35.786,29.78 L35.786,2.521 ZM37.869,11.813 L37.869,19.787 C39.680,19.413 41.48,17.768 41.48,15.800 C41.48,13.832 39.680,12.186 37.869,11.813 Z"/>
</svg>