<svg 
 xmlns="http://www.w3.org/2000/svg"
 xmlns:xlink="http://www.w3.org/1999/xlink"
 width="43px" height="42px">
<path fill-rule="evenodd"  fill="rgb(163, 187, 200)"
 d="M41.984,8.578 L28.764,29.25 C29.292,30.135 29.589,31.381 29.589,32.695 C29.589,37.368 25.846,41.169 21.246,41.169 C16.646,41.169 12.903,37.368 12.903,32.695 C12.903,31.381 13.199,30.135 13.727,29.24 L0.509,8.578 C0.277,8.218 0.324,7.743 0.624,7.438 L6.943,1.20 C7.110,0.850 7.337,0.755 7.574,0.755 L34.918,0.755 C35.155,0.755 35.382,0.850 35.549,1.20 L41.869,7.438 C42.167,7.743 42.215,8.218 41.984,8.578 ZM21.246,39.357 C24.862,39.357 27.804,36.369 27.804,32.695 C27.804,29.22 24.862,26.33 21.246,26.33 C17.629,26.33 14.688,29.22 14.688,32.695 C14.688,36.369 17.629,39.357 21.246,39.357 ZM21.259,24.221 L31.109,8.986 L11.383,8.986 L21.232,24.221 C21.237,24.221 21.241,24.221 21.246,24.221 C21.250,24.221 21.255,24.221 21.259,24.221 ZM14.779,27.347 C15.906,25.942 17.469,24.911 19.255,24.465 L9.247,8.986 L2.908,8.986 L14.779,27.347 ZM34.549,2.567 L7.943,2.567 L3.410,7.174 L9.728,7.174 C9.734,7.174 9.740,7.174 9.747,7.174 L32.745,7.174 C32.751,7.174 32.758,7.174 32.764,7.174 L39.83,7.174 L34.549,2.567 ZM33.244,8.986 L23.237,24.465 C25.23,24.911 26.585,25.942 27.713,27.348 L39.583,8.986 L33.244,8.986 ZM20.131,29.377 L21.549,29.377 C22.41,29.377 22.441,29.783 22.441,30.284 L22.441,36.92 C22.441,36.593 22.41,36.999 21.549,36.999 C21.56,36.999 20.656,36.593 20.656,36.92 L20.656,31.190 L20.131,31.190 C19.638,31.190 19.239,30.784 19.239,30.284 C19.239,29.783 19.638,29.377 20.131,29.377 Z"/>
</svg>