<svg 
 xmlns="http://www.w3.org/2000/svg"
 xmlns:xlink="http://www.w3.org/1999/xlink"
 width="6px" height="10px">
<path fill-rule="evenodd"  fill="rgb(36, 63, 77)"
 d="M0.472,9.538 C0.590,9.538 0.709,9.492 0.802,9.398 L5.24,5.133 C5.28,5.128 5.32,5.124 5.36,5.120 C5.76,5.76 5.108,5.28 5.131,4.975 C5.131,4.975 5.131,4.977 5.131,4.974 C5.162,4.906 5.177,4.832 5.177,4.758 C5.177,4.757 5.177,4.756 5.177,4.755 C5.176,4.684 5.162,4.611 5.133,4.544 C5.133,4.544 5.133,4.544 5.132,4.544 C5.132,4.544 5.132,4.544 5.132,4.543 C5.109,4.489 5.76,4.439 5.35,4.395 C5.32,4.391 5.28,4.387 5.24,4.383 L0.802,0.118 C0.608,0.75 0.306,0.67 0.123,0.138 C0.34,0.237 0.7,0.363 0.7,0.490 C0.7,0.626 0.42,0.761 0.141,0.862 L3.998,4.758 L0.141,8.654 C0.42,8.755 0.7,8.890 0.7,9.26 C0.7,9.153 0.34,9.279 0.123,9.379 C0.217,9.485 0.344,9.538 0.472,9.538 Z"/>
</svg>