<svg 
 xmlns="http://www.w3.org/2000/svg"
 xmlns:xlink="http://www.w3.org/1999/xlink"
 width="15px" height="11px">
<path fill-rule="evenodd"  fill="rgb(255, 255, 255)"
 d="M8.930,11.7 C9.83,11.7 9.236,10.954 9.356,10.846 L14.790,5.933 C14.796,5.929 14.802,5.922 14.808,5.916 C14.820,5.906 14.830,5.895 14.840,5.885 L14.840,5.883 L14.840,5.883 C14.929,5.784 14.977,5.662 14.985,5.540 C14.988,5.496 14.986,5.453 14.979,5.410 C14.960,5.298 14.908,5.191 14.824,5.103 C14.813,5.92 14.802,5.81 14.790,5.71 L9.356,0.159 C9.109,0.63 8.716,0.54 8.482,0.182 C8.247,0.418 8.257,0.791 8.505,1.15 L12.817,4.912 L0.631,4.912 C0.290,4.912 0.13,5.176 0.13,5.502 C0.13,5.828 0.290,6.92 0.631,6.92 L12.817,6.92 L8.505,9.989 C8.257,10.213 8.247,10.587 8.482,10.824 C8.603,10.945 8.767,11.7 8.930,11.7 Z"/>
</svg>