<svg 
 xmlns="http://www.w3.org/2000/svg"
 xmlns:xlink="http://www.w3.org/1999/xlink"
 width="23px" height="15px">
<path fill-rule="evenodd"  fill="rgb(136, 136, 136)"
 d="M22.691,5.834 L22.690,5.903 L22.676,7.720 L22.676,7.796 L22.600,7.796 L20.170,7.796 L20.151,10.226 L20.151,10.296 L20.81,10.296 L18.258,10.296 L18.189,10.296 L18.190,10.226 L18.208,7.796 L15.778,7.796 L15.702,7.796 L15.702,7.720 L15.716,5.903 L15.717,5.834 L15.793,5.834 L18.223,5.834 L18.242,3.397 L18.242,3.328 L18.311,3.328 L20.135,3.328 L20.203,3.328 L20.203,3.397 L20.184,5.834 L22.615,5.834 L22.691,5.834 ZM9.107,14.114 C8.468,14.279 7.820,14.360 7.168,14.360 C7.29,14.360 6.890,14.356 6.751,14.349 C5.342,14.266 4.61,13.824 2.928,12.989 C1.465,11.912 0.544,10.475 0.157,8.700 C0.17,8.58 0.32,7.416 0.20,6.767 C0.121,5.234 0.657,3.859 1.639,2.665 C2.657,1.414 3.954,0.600 5.505,0.207 C5.898,0.103 6.293,0.41 6.694,0.20 C6.921,0.13 7.150,0.0 7.378,0.0 C8.593,0.13 9.731,0.317 10.775,0.932 C11.476,1.332 11.874,1.739 12.45,1.864 C11.329,2.568 10.640,3.259 9.937,3.949 C9.416,3.500 8.839,3.86 7.839,2.934 C7.632,2.904 7.427,2.889 7.226,2.889 C5.219,2.889 3.537,4.340 3.90,6.242 C2.983,6.669 2.952,7.105 2.990,7.540 C3.143,9.308 4.326,10.758 5.925,11.276 C6.332,11.404 6.754,11.465 7.178,11.465 C7.278,11.465 7.377,11.462 7.477,11.456 C8.230,11.407 8.935,11.207 9.574,10.786 C10.650,10.54 10.997,8.907 11.0,8.624 L7.153,8.624 C7.154,8.530 7.168,6.732 7.174,5.855 L7.182,5.738 L13.935,5.738 C14.299,7.844 13.972,10.60 12.660,11.794 C11.754,12.989 10.546,13.742 9.107,14.114 Z"/>
</svg>