<svg 
 xmlns="http://www.w3.org/2000/svg"
 xmlns:xlink="http://www.w3.org/1999/xlink"
 width="55px" height="37px">
<path fill-rule="evenodd"  fill="rgb(163, 187, 200)"
 d="M46.780,17.812 L46.780,19.803 C46.780,20.237 46.429,20.589 45.995,20.589 C45.561,20.589 45.209,20.237 45.209,19.803 L45.209,17.812 C45.209,17.377 45.561,17.25 45.995,17.25 C46.429,17.25 46.780,17.377 46.780,17.812 ZM36.756,14.90 L36.756,6.700 C36.756,6.266 37.108,5.914 37.542,5.914 L41.843,5.914 C44.565,5.914 46.780,8.130 46.780,10.855 L46.780,14.90 C46.780,14.524 46.429,14.876 45.995,14.876 L37.542,14.876 C37.108,14.876 36.756,14.524 36.756,14.90 ZM38.327,13.304 L45.209,13.304 L45.209,10.855 C45.209,8.997 43.699,7.486 41.843,7.486 L38.327,7.486 L38.327,13.304 ZM49.136,25.726 L46.354,25.726 C45.976,28.99 43.918,29.919 41.442,29.919 C38.967,29.919 36.908,28.99 36.531,25.726 L25.279,25.726 C24.901,28.99 22.843,29.919 20.367,29.919 C17.892,29.919 15.833,28.99 15.455,25.726 L13.36,25.726 C12.603,25.726 12.251,25.374 12.251,24.940 L12.251,1.353 C12.251,0.919 12.603,0.567 13.36,0.567 L19.83,0.567 C19.517,0.567 19.868,0.919 19.868,1.353 C19.868,1.788 19.517,2.140 19.83,2.140 L13.822,2.140 L13.822,24.154 L15.455,24.154 C15.833,21.780 17.892,19.961 20.367,19.961 C22.843,19.961 24.901,21.780 25.279,24.154 L33.614,24.154 L33.614,23.28 C33.614,22.594 33.966,22.243 34.400,22.243 C34.834,22.243 35.185,22.594 35.185,23.28 L35.185,24.154 L36.531,24.154 C36.908,21.780 38.967,19.961 41.442,19.961 C43.918,19.961 45.976,21.780 46.354,24.154 L48.351,24.154 L48.351,10.855 C48.351,7.263 45.431,4.341 41.843,4.341 L35.185,4.341 L35.185,19.360 C35.185,19.794 34.834,20.146 34.400,20.146 C33.966,20.146 33.614,19.794 33.614,19.360 L33.614,2.140 L22.225,2.140 C21.791,2.140 21.439,1.788 21.439,1.353 C21.439,0.919 21.791,0.567 22.225,0.567 L34.400,0.567 C34.834,0.567 35.185,0.919 35.185,1.353 L35.185,2.769 L41.843,2.769 C46.297,2.769 49.922,6.397 49.922,10.855 L49.922,24.940 C49.922,25.374 49.570,25.726 49.136,25.726 ZM20.367,21.534 C18.490,21.534 16.964,23.61 16.964,24.940 C16.964,26.819 18.490,28.347 20.367,28.347 C22.244,28.347 23.771,26.819 23.771,24.940 C23.771,23.61 22.244,21.534 20.367,21.534 ZM41.443,21.534 C39.566,21.534 38.40,23.61 38.39,24.939 C38.39,24.940 38.39,24.940 38.39,24.940 C38.39,24.941 38.39,24.941 38.39,24.941 C38.40,26.819 39.566,28.347 41.443,28.347 C43.319,28.347 44.846,26.819 44.846,24.940 C44.846,23.61 43.319,21.534 41.443,21.534 ZM41.443,26.967 C40.326,26.967 39.418,26.57 39.418,24.940 C39.418,23.822 40.326,22.913 41.443,22.913 C42.559,22.913 43.468,23.822 43.468,24.940 C43.468,26.57 42.559,26.967 41.443,26.967 ZM41.443,24.485 C41.192,24.485 40.988,24.689 40.988,24.940 C40.988,25.191 41.192,25.395 41.443,25.395 C41.693,25.395 41.897,25.191 41.897,24.940 C41.897,24.689 41.693,24.485 41.443,24.485 ZM20.367,26.967 C19.251,26.967 18.342,26.57 18.342,24.940 C18.342,23.822 19.251,22.913 20.367,22.913 C21.484,22.913 22.392,23.822 22.392,24.940 C22.392,26.57 21.484,26.967 20.367,26.967 ZM20.367,24.485 C20.117,24.485 19.913,24.689 19.913,24.940 C19.913,25.191 20.117,25.395 20.367,25.395 C20.618,25.395 20.821,25.191 20.821,24.940 C20.821,24.689 20.618,24.485 20.367,24.485 ZM10.340,17.911 L4.737,17.911 C4.304,17.911 3.952,17.559 3.952,17.125 C3.952,16.691 4.304,16.340 4.737,16.340 L10.339,16.340 C10.773,16.340 11.125,16.691 11.125,17.125 C11.125,17.559 10.773,17.911 10.340,17.911 ZM9.816,6.905 L3.690,6.905 C3.256,6.905 2.905,6.553 2.905,6.119 C2.905,5.685 3.256,5.333 3.690,5.333 L9.816,5.333 C10.250,5.333 10.601,5.685 10.601,6.119 C10.601,6.553 10.250,6.905 9.816,6.905 ZM9.30,12.408 C9.30,12.843 8.679,13.195 8.245,13.195 L1.596,13.195 C1.162,13.195 0.810,12.843 0.810,12.408 C0.810,11.974 1.162,11.623 1.596,11.623 L8.245,11.623 C8.679,11.623 9.30,11.974 9.30,12.408 ZM1.596,22.628 L4.983,22.628 C5.417,22.628 5.768,22.981 5.768,23.415 C5.768,23.849 5.417,24.201 4.983,24.201 L1.596,24.201 C1.162,24.201 0.810,23.849 0.810,23.415 C0.810,22.981 1.162,22.628 1.596,22.628 ZM7.601,22.628 L8.245,22.628 C8.679,22.628 9.30,22.981 9.30,23.415 C9.30,23.849 8.679,24.201 8.245,24.201 L7.601,24.201 C7.167,24.201 6.815,23.849 6.815,23.415 C6.815,22.981 7.167,22.628 7.601,22.628 Z"/>
<path fill-rule="evenodd"  opacity="0.341" fill="rgb(163, 187, 200)"
 d="M44.749,17.406 C50.169,17.406 54.562,21.792 54.562,27.202 C54.562,32.613 50.169,36.999 44.749,36.999 C39.330,36.999 34.937,32.613 34.937,27.202 C34.937,21.792 39.330,17.406 44.749,17.406 Z"/>
</svg>