<svg 
 xmlns="http://www.w3.org/2000/svg"
 xmlns:xlink="http://www.w3.org/1999/xlink"
 width="54px" height="53px">
<path fill-rule="evenodd"  fill="rgb(163, 187, 200)"
 d="M40.381,26.239 C39.919,26.239 39.545,25.866 39.545,25.403 L39.545,23.363 C38.245,22.997 37.289,21.800 37.289,20.384 C37.289,18.676 38.676,17.288 40.381,17.288 C42.86,17.288 43.473,18.676 43.473,20.384 C43.473,21.800 42.517,22.997 41.217,23.363 L41.217,25.403 C41.217,25.866 40.843,26.239 40.381,26.239 ZM41.802,20.384 C41.802,19.600 41.164,18.962 40.381,18.962 C39.598,18.962 38.960,19.599 38.960,20.384 C38.960,21.168 39.598,21.806 40.381,21.806 C41.164,21.806 41.802,21.168 41.802,20.384 ZM48.534,22.736 C48.995,22.736 49.369,23.111 49.369,23.572 L49.369,26.758 C49.369,28.437 48.5,29.803 46.328,29.803 L34.434,29.803 C32.757,29.803 31.393,28.437 31.393,26.758 L31.393,16.11 C31.393,14.555 32.419,13.335 33.786,13.37 L33.786,7.20 C33.786,3.380 36.744,0.418 40.381,0.418 C44.17,0.418 46.976,3.380 46.976,7.20 L46.976,13.37 C48.343,13.334 49.369,14.554 49.369,16.11 L49.369,20.784 C49.369,21.246 48.995,21.620 48.534,21.620 C48.72,21.620 47.698,21.246 47.698,20.784 L47.698,16.11 C47.698,15.255 47.83,14.640 46.328,14.640 L34.434,14.640 C33.679,14.640 33.64,15.255 33.64,16.11 L33.64,26.758 C33.64,27.514 33.679,28.129 34.434,28.129 L46.328,28.129 C47.83,28.129 47.698,27.514 47.698,26.758 L47.698,23.572 C47.698,23.111 48.72,22.736 48.534,22.736 ZM35.457,12.967 L45.304,12.967 L45.304,7.20 C45.304,4.302 43.95,2.92 40.381,2.92 C37.666,2.92 35.457,4.302 35.457,7.20 L35.457,12.967 ZM5.710,35.228 L13.895,35.228 C14.357,35.228 14.731,35.602 14.731,36.64 C14.731,36.527 14.357,36.901 13.895,36.901 L5.710,36.901 C5.249,36.901 4.875,36.527 4.875,36.64 C4.875,35.602 5.249,35.228 5.710,35.228 ZM5.710,31.235 L19.981,31.235 C20.443,31.235 20.817,31.610 20.817,32.72 C20.817,32.535 20.443,32.909 19.981,32.909 L5.710,32.909 C5.249,32.909 4.875,32.535 4.875,32.72 C4.875,31.610 5.249,31.235 5.710,31.235 ZM29.220,21.354 L15.4,21.354 C14.542,21.354 14.168,20.980 14.168,20.518 C14.168,20.56 14.542,19.681 15.4,19.681 L29.220,19.681 C29.682,19.681 30.56,20.56 30.56,20.518 C30.56,20.980 29.682,21.354 29.220,21.354 ZM29.220,28.497 L1.929,28.497 L1.929,40.416 C1.929,41.609 2.899,42.581 4.92,42.581 L43.426,42.581 C44.619,42.581 45.589,41.609 45.589,40.416 L45.589,32.151 C45.589,31.689 45.963,31.315 46.425,31.315 C46.886,31.315 47.260,31.689 47.261,32.151 L47.261,40.416 C47.261,42.532 45.541,44.254 43.427,44.254 L4.92,44.254 C1.978,44.254 0.258,42.531 0.258,40.416 L0.258,16.796 C0.258,14.680 1.978,12.958 4.92,12.958 L29.220,12.958 C29.682,12.958 30.56,13.332 30.56,13.794 C30.56,14.256 29.682,14.631 29.220,14.631 L4.92,14.631 C2.899,14.631 1.929,15.602 1.929,16.796 L1.929,19.681 L11.797,19.681 C12.259,19.681 12.633,20.56 12.633,20.517 C12.633,20.979 12.259,21.354 11.797,21.354 L1.929,21.354 L1.929,26.824 L29.220,26.824 C29.682,26.824 30.56,27.199 30.56,27.660 C30.56,28.123 29.682,28.497 29.220,28.497 Z"/>
<path fill-rule="evenodd"  opacity="0.341" fill="rgb(163, 187, 200)"
 d="M43.999,33.62 C49.419,33.62 53.812,37.448 53.812,42.859 C53.812,48.269 49.419,52.655 43.999,52.655 C38.580,52.655 34.187,48.269 34.187,42.859 C34.187,37.448 38.580,33.62 43.999,33.62 Z"/>
</svg>