<svg 
 xmlns="http://www.w3.org/2000/svg"
 xmlns:xlink="http://www.w3.org/1999/xlink"
 width="52px" height="54px">
<path fill-rule="evenodd"  opacity="0.341" fill="rgb(163, 187, 200)"
 d="M41.984,33.593 C47.394,33.593 51.781,37.986 51.781,43.406 C51.781,48.825 47.394,53.218 41.984,53.218 C36.573,53.218 32.187,48.825 32.187,43.406 C32.187,37.986 36.573,33.593 41.984,33.593 Z"/>
<path fill-rule="evenodd"  fill="rgb(163, 187, 200)"
 d="M25.463,49.206 C20.102,49.206 15.10,47.509 10.735,44.300 C10.320,43.989 10.237,43.401 10.547,42.987 C10.858,42.573 11.446,42.489 11.860,42.800 C15.808,45.764 20.512,47.330 25.463,47.330 C37.969,47.330 48.143,37.156 48.143,24.649 C48.143,20.396 46.960,16.251 44.720,12.661 C44.446,12.222 44.580,11.643 45.19,11.369 C45.459,11.95 46.37,11.229 46.311,11.669 C48.736,15.556 50.19,20.45 50.19,24.649 C50.19,38.189 39.3,49.206 25.463,49.206 ZM34.782,35.483 C34.264,35.483 33.844,35.63 33.844,34.546 L33.844,29.45 L26.906,29.45 C26.569,29.45 26.257,28.864 26.91,28.570 C25.924,28.277 25.928,27.916 26.101,27.627 L33.977,14.438 C34.242,13.994 34.818,13.849 35.263,14.114 C35.554,14.288 35.715,14.595 35.719,14.910 C35.719,14.914 35.720,14.915 35.720,14.919 L35.720,22.528 C35.720,23.46 35.300,23.465 34.782,23.465 C34.264,23.465 33.844,23.46 33.844,22.528 L33.844,18.318 L28.558,27.170 L33.844,27.170 L33.844,25.653 C33.844,25.136 34.264,24.715 34.782,24.715 C35.300,24.715 35.720,25.136 35.720,25.653 L35.720,27.170 L38.321,27.170 C38.839,27.170 39.258,27.590 39.258,28.107 C39.258,28.625 38.839,29.45 38.321,29.45 L35.720,29.45 L35.720,34.546 C35.720,35.63 35.300,35.483 34.782,35.483 ZM18.374,15.856 C16.186,15.856 14.405,17.637 14.405,19.826 C14.405,20.344 13.985,20.763 13.468,20.763 C12.950,20.763 12.530,20.344 12.530,19.826 C12.530,16.603 15.152,13.981 18.374,13.981 C21.597,13.981 24.218,16.603 24.218,19.826 C24.218,23.240 22.889,26.451 20.474,28.864 L15.731,33.608 L23.281,33.608 C23.799,33.608 24.218,34.28 24.218,34.546 C24.218,35.63 23.799,35.483 23.281,35.483 L13.467,35.483 C13.88,35.483 12.747,35.255 12.601,34.905 C12.456,34.554 12.537,34.151 12.805,33.882 L19.148,27.539 C21.209,25.479 22.343,22.740 22.343,19.826 C22.343,17.637 20.563,15.856 18.374,15.856 ZM42.832,9.558 L38.771,9.654 C38.764,9.654 38.756,9.654 38.749,9.654 C38.241,9.654 37.824,9.249 37.812,8.739 C37.799,8.221 38.209,7.791 38.727,7.780 L40.570,7.736 C36.434,4.49 31.40,1.969 25.463,1.969 C12.956,1.969 2.782,12.143 2.782,24.650 C2.782,30.790 5.197,36.541 9.581,40.842 C9.951,41.205 9.956,41.798 9.594,42.168 C9.410,42.356 9.168,42.449 8.924,42.449 C8.688,42.449 8.451,42.360 8.268,42.180 C3.521,37.524 0.907,31.298 0.907,24.649 C0.907,11.109 11.922,0.94 25.463,0.94 C28.947,0.94 32.315,0.809 35.472,2.220 C37.802,3.261 39.928,4.640 41.817,6.331 L41.776,4.583 C41.763,4.64 42.173,3.635 42.691,3.622 C43.207,3.612 43.638,4.20 43.650,4.538 L43.747,8.598 C43.759,9.116 43.349,9.545 42.832,9.558 Z"/>
</svg>