<svg 
 xmlns="http://www.w3.org/2000/svg"
 xmlns:xlink="http://www.w3.org/1999/xlink"
 width="18px" height="18px">
<path fill-rule="evenodd"  fill="rgb(136, 136, 136)"
 d="M16.908,13.562 C16.374,15.523 15.95,16.683 13.110,17.1 C12.369,17.121 10.366,17.193 8.366,17.193 C6.319,17.193 4.275,17.117 3.588,16.939 C1.638,16.435 0.474,15.164 0.164,13.189 C0.66,11.739 0.90,4.999 0.327,3.535 C0.873,1.629 2.146,0.510 4.75,0.193 C4.949,0.50 6.658,0.0 8.385,0.0 C9.990,0.0 11.608,0.43 12.583,0.96 C13.764,0.158 14.845,0.538 15.723,1.381 C16.559,2.181 16.986,3.182 17.95,4.316 C17.223,5.668 17.306,12.63 16.908,13.562 ZM15.547,4.460 C15.393,2.948 14.468,1.953 12.972,1.719 C12.231,1.606 10.447,1.556 8.672,1.556 C6.960,1.556 5.255,1.603 4.505,1.684 C3.6,1.857 1.997,2.782 1.758,4.274 C1.511,5.855 1.514,11.767 1.698,12.955 C1.889,14.190 2.588,15.39 3.821,15.385 C4.488,15.572 6.487,15.639 8.446,15.639 C10.250,15.639 12.21,15.583 12.687,15.509 C14.201,15.344 15.201,14.411 15.441,12.906 C15.688,11.394 15.688,5.876 15.547,4.460 ZM13.208,5.54 C12.636,5.48 12.183,4.585 12.187,4.18 C12.192,3.450 12.651,2.989 13.218,2.989 L13.231,2.989 C13.798,2.989 14.256,3.452 14.252,4.25 C14.247,4.591 13.781,5.54 13.208,5.54 ZM8.562,13.9 C6.125,13.9 4.171,11.34 4.190,8.597 C4.209,6.159 6.199,4.184 8.636,4.191 C11.67,4.191 13.27,6.166 13.9,8.604 C12.990,11.34 11.0,13.9 8.562,13.9 ZM8.645,5.745 L8.620,5.745 C7.57,5.745 5.770,7.3 5.744,8.569 C5.719,10.144 6.972,11.435 8.547,11.448 L8.572,11.449 C10.135,11.449 11.422,10.190 11.448,8.625 C11.473,7.43 10.220,5.759 8.645,5.745 Z"/>
</svg>