<svg 
 xmlns="http://www.w3.org/2000/svg"
 xmlns:xlink="http://www.w3.org/1999/xlink"
 width="7px" height="12px">
<path fill-rule="evenodd"  fill="rgb(38, 38, 38)"
 d="M1.333,11.686 C1.183,11.686 1.33,11.625 0.922,11.504 C0.818,11.390 0.767,11.244 0.767,11.99 C0.767,10.943 0.826,10.788 0.944,10.672 L5.490,6.197 L0.944,1.723 C0.826,1.608 0.767,1.453 0.767,1.297 C0.767,1.152 0.818,1.6 0.922,0.893 C1.137,0.656 1.495,0.647 1.722,0.870 L6.700,5.768 C6.704,5.772 6.709,5.777 6.713,5.782 C6.761,5.831 6.800,5.888 6.827,5.950 L6.827,5.950 C6.828,5.950 6.828,5.950 6.828,5.950 C6.862,6.28 6.879,6.112 6.879,6.195 C6.879,6.196 6.879,6.197 6.879,6.197 C6.879,6.283 6.862,6.368 6.827,6.447 L6.827,6.447 C6.827,6.447 6.826,6.447 6.826,6.447 C6.826,6.448 6.826,6.448 6.826,6.448 C6.826,6.448 6.826,6.448 6.826,6.449 C6.798,6.509 6.761,6.564 6.714,6.613 C6.710,6.618 6.704,6.622 6.700,6.628 L1.722,11.526 C1.613,11.634 1.473,11.686 1.333,11.686 Z"/>
</svg>