<svg 
 xmlns="http://www.w3.org/2000/svg"
 xmlns:xlink="http://www.w3.org/1999/xlink"
 width="22px" height="9px">
<path fill-rule="evenodd"  fill="rgb(67, 99, 114)"
 d="M0.296,5.472 L0.287,5.470 L17.244,5.470 L17.143,8.328 C17.89,8.383 17.59,8.457 17.59,8.533 C17.59,8.611 17.89,8.683 17.143,8.738 L17.316,8.912 C17.370,8.966 17.442,8.995 17.519,8.995 C17.596,8.995 17.669,8.966 17.723,8.912 L21.915,4.700 C21.970,4.645 22.0,4.572 21.999,4.496 C22.0,4.419 21.970,4.345 21.915,4.291 L17.723,0.79 C17.669,0.25 17.596,0.3 17.519,0.3 C17.442,0.3 17.370,0.25 17.316,0.79 L17.143,0.252 C17.89,0.306 17.59,0.379 17.59,0.456 C17.59,0.534 17.89,0.602 17.143,0.656 L17.256,3.521 L0.292,3.521 C0.133,3.521 0.0,3.657 0.0,3.817 L0.0,5.186 C0.0,5.346 0.137,5.472 0.296,5.472 Z"/>
</svg>