<svg 
 xmlns="http://www.w3.org/2000/svg"
 xmlns:xlink="http://www.w3.org/1999/xlink"
 width="79px" height="64px">
<path fill-rule="evenodd"  fill="rgb(163, 187, 200)"
 d="M61.499,29.624 C70.819,29.624 78.374,37.180 78.374,46.499 C78.374,55.819 70.819,63.374 61.499,63.374 C52.180,63.374 44.624,55.819 44.624,46.499 C44.624,37.180 52.180,29.624 61.499,29.624 Z"/>
<path fill-rule="evenodd"  fill="rgb(36, 63, 77)"
 d="M58.492,37.654 C58.308,37.654 58.121,37.608 57.950,37.510 L55.946,36.365 C55.427,36.68 55.249,35.411 55.549,34.898 C55.848,34.384 56.512,34.208 57.31,34.505 L59.36,35.650 C59.555,35.947 59.733,36.603 59.433,37.117 C59.232,37.461 58.867,37.654 58.492,37.654 ZM57.31,18.39 C56.860,18.136 56.674,18.182 56.490,18.182 C56.115,18.182 55.750,17.990 55.549,17.645 C55.249,17.132 55.427,16.475 55.946,16.179 L57.951,15.33 C58.469,14.737 59.133,14.912 59.433,15.426 C59.733,15.940 59.555,16.596 59.36,16.893 L57.31,18.39 ZM62.370,26.272 C62.370,26.865 61.884,27.346 61.284,27.346 L58.969,27.346 C58.370,27.346 57.884,26.865 57.884,26.272 C57.884,25.679 58.370,25.198 58.969,25.198 L61.284,25.198 C61.884,25.198 62.370,25.679 62.370,26.272 ZM58.958,45.109 L61.72,44.690 C61.659,44.574 62.231,44.951 62.349,45.533 C62.466,46.114 62.85,46.680 61.498,46.796 L55.710,47.942 C55.639,47.955 55.568,47.963 55.497,47.963 C55.212,47.963 54.935,47.851 54.730,47.648 C54.473,47.394 54.362,47.30 54.433,46.678 L55.591,40.951 C55.708,40.370 56.280,39.992 56.868,40.109 C57.455,40.225 57.836,40.791 57.719,41.372 L57.235,43.766 C62.81,39.217 64.829,32.934 64.829,26.272 C64.829,12.969 53.893,2.147 40.450,2.147 C32.527,2.147 25.70,5.979 20.502,12.398 C20.157,12.883 19.480,13.0 18.990,12.658 C18.501,12.316 18.383,11.647 18.728,11.162 C23.702,4.172 31.822,0.0 40.450,0.0 C55.89,0.0 66.999,11.785 66.999,26.272 C66.999,33.423 64.94,40.173 58.958,45.109 ZM24.410,18.182 C24.226,18.182 24.40,18.136 23.869,18.38 L21.864,16.893 C21.345,16.596 21.168,15.940 21.467,15.426 C21.767,14.912 22.430,14.737 22.949,15.33 L24.954,16.178 C25.473,16.475 25.651,17.132 25.351,17.645 C25.150,17.990 24.785,18.182 24.410,18.182 ZM24.954,36.365 L22.949,37.510 C22.779,37.608 22.592,37.654 22.408,37.654 C22.33,37.654 21.668,37.462 21.467,37.117 C21.167,36.604 21.345,35.947 21.864,35.651 L23.869,34.505 C24.388,34.208 25.52,34.384 25.351,34.898 C25.651,35.411 25.473,36.68 24.954,36.365 ZM31.733,41.213 C32.252,41.509 32.429,42.166 32.130,42.680 L30.972,44.663 C30.771,45.8 30.407,45.200 30.32,45.200 C29.848,45.200 29.661,45.154 29.490,45.56 C28.971,44.760 28.793,44.103 29.93,43.589 L30.250,41.606 C30.550,41.92 31.214,40.916 31.733,41.213 ZM31.191,11.475 C30.817,11.475 30.452,11.282 30.251,10.938 L29.93,8.954 C28.793,8.440 28.971,7.783 29.490,7.487 C30.9,7.190 30.673,7.366 30.973,7.880 L32.130,9.864 C32.429,10.377 32.252,11.34 31.733,11.331 C31.562,11.428 31.375,11.475 31.191,11.475 ZM39.220,22.508 C39.220,26.135 36.261,27.733 33.883,29.17 C31.957,30.58 30.621,30.840 30.149,32.70 L38.135,32.70 C38.734,32.70 39.220,32.551 39.220,33.144 C39.220,33.737 38.734,34.218 38.135,34.218 L28.875,34.218 C28.276,34.218 27.790,33.737 27.790,33.144 C27.790,29.861 30.475,28.411 32.844,27.132 C35.461,25.719 37.50,24.702 37.50,22.508 C37.50,20.754 35.460,19.328 33.505,19.328 C31.551,19.328 29.960,20.754 29.960,22.508 C29.960,23.101 29.474,23.582 28.875,23.582 C28.276,23.582 27.790,23.101 27.790,22.508 C27.790,19.570 30.354,17.180 33.505,17.180 C36.656,17.180 39.220,19.570 39.220,22.508 ZM50.649,41.606 L51.807,43.589 C52.107,44.103 51.929,44.760 51.410,45.57 C51.239,45.154 51.52,45.200 50.868,45.200 C50.493,45.200 50.129,45.8 49.928,44.664 L48.770,42.680 C48.470,42.166 48.648,41.509 49.167,41.213 C49.686,40.916 50.350,41.92 50.649,41.606 ZM39.365,7.945 L39.365,5.654 C39.365,5.61 39.851,4.581 40.450,4.581 C41.49,4.581 41.535,5.61 41.535,5.654 L41.535,7.945 C41.535,8.538 41.49,9.19 40.450,9.19 C39.851,9.19 39.365,8.538 39.365,7.945 ZM49.709,11.474 C49.525,11.474 49.338,11.428 49.167,11.331 C48.648,11.34 48.471,10.377 48.770,9.864 L49.928,7.880 C50.227,7.366 50.891,7.190 51.410,7.487 C51.929,7.783 52.107,8.440 51.807,8.953 L50.649,10.937 C50.449,11.282 50.84,11.474 49.709,11.474 ZM53.110,28.562 C53.110,29.156 52.624,29.636 52.24,29.636 L50.795,29.636 L50.795,33.144 C50.795,33.737 50.309,34.218 49.710,34.218 C49.110,34.218 48.624,33.737 48.624,33.144 L48.624,29.636 L41.607,29.636 C41.278,29.636 40.967,29.489 40.761,29.234 C40.555,28.980 40.476,28.648 40.548,28.330 L42.863,18.21 C42.993,17.442 43.572,17.77 44.158,17.206 C44.743,17.334 45.111,17.908 44.982,18.487 L42.960,27.489 L48.625,27.489 L48.625,18.254 C48.625,17.661 49.110,17.180 49.710,17.180 C50.309,17.180 50.795,17.661 50.795,18.254 L50.795,27.489 L52.25,27.489 C52.624,27.489 53.110,27.969 53.110,28.562 ZM19.691,26.604 L15.622,30.630 C14.789,31.455 14.685,32.776 15.380,33.703 C17.470,36.485 19.851,39.204 22.459,41.784 C25.67,44.365 27.814,46.722 30.626,48.789 C31.562,49.477 32.897,49.375 33.730,48.550 L37.800,44.523 C39.239,43.99 41.483,42.794 43.257,43.781 L54.845,50.231 C56.59,50.907 56.865,52.84 57.56,53.461 C57.256,54.903 56.763,56.332 55.703,57.381 L51.411,61.628 C49.815,63.207 47.555,63.999 44.777,63.999 C42.278,63.999 39.359,63.358 36.126,62.73 C29.597,59.477 22.454,54.537 16.13,48.162 C9.572,41.789 4.580,34.721 1.957,28.260 C0.785,21.506 0.625,16.135 2.406,13.134 L6.698,8.887 C7.758,7.838 9.201,7.350 10.659,7.548 C12.50,7.737 13.240,8.534 13.923,9.736 L20.441,21.203 C21.439,22.959 21.130,25.179 19.691,26.604 ZM18.549,22.256 L12.31,10.789 C11.684,10.179 11.76,9.773 10.364,9.676 C10.252,9.661 10.139,9.653 10.28,9.653 C9.365,9.653 8.725,9.919 8.232,10.406 L7.482,11.148 L8.826,13.587 C9.113,14.108 8.919,14.760 8.393,15.44 C8.228,15.133 8.50,15.175 7.875,15.175 C7.490,15.175 7.118,14.973 6.921,14.615 L5.882,12.731 L3.940,14.653 C1.596,16.972 1.607,21.640 3.970,27.459 C6.487,33.657 11.309,40.470 17.548,46.644 C23.787,52.818 30.672,57.589 36.935,60.80 C42.815,62.418 47.532,62.429 49.876,60.110 L51.818,58.187 L42.500,53.158 C41.973,52.874 41.779,52.222 42.67,51.701 C42.353,51.180 43.12,50.988 43.539,51.272 L53.418,56.605 L54.168,55.863 C54.744,55.293 55.13,54.524 54.906,53.753 C54.808,53.48 54.398,52.446 53.781,52.103 L42.193,45.653 C41.263,45.136 40.88,45.295 39.334,46.41 L37.398,47.957 L39.302,48.985 C39.828,49.269 40.22,49.921 39.735,50.442 C39.538,50.799 39.165,51.2 38.781,51.2 C38.606,51.2 38.428,50.960 38.263,50.871 L35.798,49.540 L35.265,50.68 C33.676,51.641 31.125,51.832 29.331,50.513 C26.435,48.383 23.607,45.958 20.924,43.303 C18.242,40.648 15.791,37.849 13.638,34.983 C12.306,33.208 12.499,30.684 14.88,29.112 L14.621,28.584 L9.234,18.811 C8.947,18.290 9.141,17.638 9.667,17.354 C10.193,17.70 10.852,17.262 11.139,17.782 L16.220,27.1 L18.157,25.85 C18.911,24.339 19.72,23.176 18.549,22.256 Z"/>
</svg>