<svg 
 xmlns="http://www.w3.org/2000/svg"
 xmlns:xlink="http://www.w3.org/1999/xlink"
 width="74px" height="60px">
<path fill-rule="evenodd"  fill="rgb(163, 187, 200)"
 d="M56.499,25.624 C65.819,25.624 73.374,33.180 73.374,42.499 C73.374,51.819 65.819,59.374 56.499,59.374 C47.180,59.374 39.624,51.819 39.624,42.499 C39.624,33.180 47.180,25.624 56.499,25.624 Z"/>
<path fill-rule="evenodd"  fill="rgb(36, 63, 77)"
 d="M60.635,47.856 L38.943,47.856 L39.820,54.856 L43.454,54.856 C44.47,54.856 44.527,55.336 44.527,55.928 C44.527,56.519 44.47,56.999 43.454,56.999 L20.545,56.999 C19.952,56.999 19.471,56.519 19.471,55.928 C19.471,55.336 19.952,54.856 20.545,54.856 L24.179,54.856 L25.56,47.856 L3.364,47.856 C1.509,47.856 0.0,46.350 0.0,44.499 L0.0,3.356 C0.0,1.505 1.509,0.0 3.364,0.0 L60.635,0.0 C62.490,0.0 63.999,1.505 63.999,3.356 L63.999,44.499 C63.999,46.350 62.490,47.856 60.635,47.856 ZM37.656,54.856 L36.779,47.856 L27.220,47.856 L26.343,54.856 L37.656,54.856 ZM61.852,3.356 C61.852,2.687 61.306,2.142 60.635,2.142 L3.364,2.142 C2.693,2.142 2.147,2.687 2.147,3.356 L2.147,44.499 C2.147,45.168 2.693,45.713 3.364,45.713 L60.635,45.713 C61.306,45.713 61.852,45.168 61.852,44.499 L61.852,3.356 ZM58.344,42.142 L13.673,42.142 C13.79,42.142 12.599,41.662 12.599,41.70 C12.599,40.479 13.80,39.999 13.673,39.999 L57.270,39.999 L57.270,6.714 L54.908,6.714 C54.315,6.714 53.834,6.233 53.834,5.642 C53.834,5.50 54.315,4.571 54.908,4.571 L58.344,4.571 C58.937,4.571 59.418,5.50 59.418,5.642 L59.418,41.70 C59.418,41.662 58.937,42.142 58.344,42.142 ZM52.545,20.499 L52.545,36.499 C52.545,37.91 52.64,37.570 51.471,37.570 C50.878,37.570 50.398,37.91 50.398,36.499 L50.398,20.499 C50.398,19.907 50.878,19.427 51.471,19.427 C52.65,19.427 52.545,19.907 52.545,20.499 ZM39.564,34.214 L39.564,36.499 C39.564,37.91 39.83,37.571 38.490,37.571 C37.897,37.571 37.416,37.91 37.416,36.499 L37.416,34.214 C37.416,33.622 37.897,33.142 38.490,33.142 C39.83,33.142 39.564,33.622 39.564,34.214 ZM26.583,27.356 L26.583,36.499 C26.583,37.91 26.102,37.571 25.509,37.571 C24.916,37.571 24.435,37.91 24.435,36.499 L24.435,27.356 C24.435,26.764 24.916,26.285 25.509,26.285 C26.102,26.285 26.583,26.764 26.583,27.356 ZM54.836,13.642 C54.836,15.493 53.327,16.999 51.471,16.999 C50.969,16.999 50.492,16.888 50.63,16.690 L41.459,25.780 C41.711,26.250 41.855,26.787 41.855,27.356 C41.855,29.207 40.345,30.713 38.490,30.713 C36.635,30.713 35.125,29.207 35.125,27.356 C35.125,27.172 35.141,26.991 35.170,26.814 L27.822,22.933 C27.219,23.505 26.404,23.856 25.509,23.856 C24.954,23.856 24.431,23.720 23.970,23.483 L15.563,31.624 C15.774,32.62 15.892,32.553 15.892,33.70 C15.892,34.922 14.383,36.428 12.527,36.428 C10.672,36.428 9.163,34.922 9.163,33.70 C9.163,31.219 10.672,29.713 12.527,29.713 C13.82,29.713 13.605,29.849 14.67,30.87 L22.473,21.946 C22.262,21.508 22.144,21.16 22.144,20.499 C22.144,18.648 23.653,17.142 25.509,17.142 C27.364,17.142 28.873,18.648 28.873,20.499 C28.873,20.683 28.858,20.864 28.829,21.41 L36.177,24.922 C36.780,24.351 37.594,23.999 38.490,23.999 C38.993,23.999 39.469,24.110 39.898,24.308 L48.502,15.219 C48.250,14.748 48.107,14.212 48.107,13.642 C48.107,11.791 49.616,10.285 51.471,10.285 C53.327,10.285 54.836,11.791 54.836,13.642 ZM12.527,31.856 C11.856,31.856 11.310,32.401 11.310,33.70 C11.310,33.740 11.856,34.285 12.527,34.285 C13.198,34.285 13.744,33.740 13.744,33.70 C13.744,32.401 13.199,31.856 12.527,31.856 ZM25.509,19.285 C24.838,19.285 24.292,19.830 24.292,20.499 C24.292,21.169 24.838,21.713 25.509,21.713 C26.180,21.713 26.726,21.169 26.726,20.499 C26.726,19.830 26.180,19.285 25.509,19.285 ZM38.490,26.142 C37.819,26.142 37.273,26.687 37.273,27.356 C37.273,28.26 37.819,28.571 38.490,28.571 C39.161,28.571 39.707,28.26 39.707,27.356 C39.707,26.687 39.161,26.142 38.490,26.142 ZM51.471,12.428 C50.800,12.428 50.254,12.972 50.254,13.642 C50.254,14.312 50.800,14.856 51.471,14.856 C52.143,14.856 52.688,14.312 52.688,13.642 C52.688,12.972 52.143,12.428 51.471,12.428 ZM50.326,6.713 L6.729,6.713 L6.729,39.999 L9.92,39.999 C9.685,39.999 10.165,40.479 10.165,41.70 C10.165,41.662 9.685,42.142 9.92,42.142 L5.655,42.142 C5.62,42.142 4.581,41.662 4.581,41.70 L4.581,5.642 C4.581,5.50 5.62,4.571 5.655,4.571 L50.326,4.571 C50.919,4.571 51.400,5.50 51.400,5.642 C51.400,6.233 50.919,6.713 50.326,6.713 Z"/>
</svg>