<svg 
 xmlns="http://www.w3.org/2000/svg"
 xmlns:xlink="http://www.w3.org/1999/xlink"
 width="61px" height="64px">
<path fill-rule="evenodd"  fill="rgb(163, 187, 200)"
 d="M43.499,29.624 C52.819,29.624 60.374,37.180 60.374,46.499 C60.374,55.819 52.819,63.374 43.499,63.374 C34.180,63.374 26.624,55.819 26.624,46.499 C26.624,37.180 34.180,29.624 43.499,29.624 Z"/>
<path fill-rule="evenodd"  fill="rgb(36, 63, 77)"
 d="M47.581,22.501 C48.247,23.604 48.247,24.973 47.581,26.76 L46.267,28.251 C46.94,28.537 46.27,28.877 46.79,29.209 L46.471,31.721 C46.670,33.1 46.149,34.269 45.111,35.31 L43.75,36.526 C42.806,36.723 42.615,37.12 42.536,37.339 L41.943,39.812 C41.642,41.68 40.682,42.37 39.438,42.341 L38.453,42.582 L45.381,58.181 C45.528,58.513 45.487,58.898 45.274,59.191 C45.61,59.483 44.708,59.637 44.351,59.595 L38.780,58.922 L35.570,63.568 C35.383,63.839 35.76,63.999 34.752,63.999 C34.721,63.999 34.689,63.998 34.658,63.995 C34.300,63.961 33.987,63.735 33.840,63.403 L26.760,47.460 L25.832,48.31 C25.286,48.367 24.673,48.535 24.61,48.535 C23.449,48.535 22.837,48.367 22.291,48.31 L21.395,47.479 L14.323,63.403 C14.176,63.735 13.864,63.961 13.505,63.995 C13.474,63.998 13.443,63.999 13.412,63.999 C13.87,63.999 12.781,63.839 12.593,63.568 L9.384,58.922 L3.812,59.594 C3.455,59.638 3.103,59.483 2.890,59.191 C2.676,58.898 2.636,58.513 2.783,58.181 L9.707,42.590 L8.684,42.340 C7.439,42.36 6.479,41.67 6.178,39.811 L5.585,37.337 C5.507,37.11 5.316,36.722 5.47,36.525 L3.11,35.30 C1.973,34.268 1.452,32.999 1.652,31.720 L2.43,29.209 C2.95,28.877 2.28,28.537 1.855,28.251 L0.542,26.76 C0.123,24.974 0.123,23.604 0.541,22.501 L1.855,20.327 C2.28,20.40 2.95,19.700 2.44,19.369 L1.652,16.856 C1.453,15.576 1.973,14.309 3.11,13.547 L5.47,12.52 C5.317,11.854 5.508,11.565 5.586,11.239 L6.179,8.766 C6.480,7.509 7.441,6.540 8.685,6.236 L11.135,5.638 C11.458,5.559 11.744,5.366 11.940,5.94 L13.421,3.39 C14.176,1.992 15.432,1.466 16.700,1.667 L19.188,2.62 C19.516,2.114 19.853,2.47 20.137,1.872 L22.291,0.546 C23.383,0.125 24.740,0.125 25.832,0.546 L27.986,1.873 C28.270,2.47 28.607,2.114 28.935,2.63 L31.424,1.667 C32.691,1.466 33.948,1.992 34.703,3.40 L36.184,5.95 C36.379,5.366 36.665,5.560 36.989,5.639 L39.439,6.237 C40.683,6.542 41.643,7.511 41.944,8.767 L42.537,11.240 C42.615,11.567 42.807,11.855 43.76,12.53 L45.112,13.547 C46.149,14.310 46.670,15.578 46.471,16.858 L46.79,19.369 C46.27,19.700 46.94,20.40 46.267,20.327 L47.581,22.501 ZM34.941,60.955 L37.485,57.273 C37.696,56.968 38.56,56.804 38.422,56.849 L42.837,57.381 L36.518,43.153 C36.390,43.243 36.276,43.354 36.182,43.483 L34.702,45.539 C34.569,45.722 34.421,45.889 34.260,46.40 L37.593,53.545 C37.818,54.53 37.593,54.650 37.90,54.877 C36.958,54.937 36.819,54.966 36.682,54.966 C36.301,54.966 35.937,54.744 35.771,54.370 L32.460,46.913 C32.122,46.964 31.773,46.966 31.423,46.910 L28.935,46.515 C28.799,46.493 28.662,46.493 28.528,46.512 L34.941,60.955 ZM5.326,57.382 L9.741,56.849 C10.107,56.804 10.468,56.968 10.679,57.273 L13.222,60.955 L19.633,46.518 C19.486,46.493 19.336,46.491 19.187,46.515 L16.698,46.910 C16.362,46.964 16.27,46.964 15.701,46.919 L12.393,54.370 C12.226,54.743 11.862,54.965 11.481,54.965 C11.344,54.965 11.206,54.937 11.73,54.877 C10.570,54.649 10.345,54.53 10.570,53.545 L13.891,46.68 C13.719,45.910 13.560,45.733 13.420,45.538 L11.939,43.483 C11.853,43.364 11.750,43.261 11.635,43.176 L5.326,57.382 ZM45.876,23.551 L44.562,21.376 C44.143,20.682 43.982,19.858 44.107,19.55 L44.498,16.544 C44.581,16.15 44.366,15.492 43.937,15.177 L41.901,13.683 C41.249,13.204 40.786,12.505 40.596,11.714 L40.4,9.240 C39.879,8.722 39.483,8.322 38.969,8.196 L36.519,7.597 C35.736,7.406 35.43,6.938 34.569,6.280 L33.88,4.225 C32.776,3.792 32.257,3.576 31.734,3.659 L29.246,4.54 C28.451,4.180 27.634,4.17 26.947,3.593 L24.792,2.267 C24.341,1.990 23.781,1.990 23.330,2.267 L21.176,3.593 C20.489,4.17 19.672,4.180 18.877,4.53 L16.389,3.658 C15.866,3.575 15.347,3.792 15.36,4.225 L13.555,6.280 C13.81,6.937 12.388,7.406 11.604,7.597 L9.154,8.195 C8.640,8.321 8.244,8.721 8.120,9.240 L7.527,11.713 C7.337,12.504 6.874,13.203 6.222,13.682 L4.186,15.177 C3.757,15.491 3.542,16.15 3.625,16.543 L4.16,19.55 C4.141,19.858 3.979,20.682 3.560,21.376 L2.247,23.551 C1.972,24.6 1.972,24.571 2.247,25.26 L3.560,27.201 C3.979,27.895 4.141,28.719 4.16,29.522 L3.624,32.33 C3.542,32.561 3.757,33.85 4.185,33.400 L6.221,34.895 C6.873,35.373 7.336,36.73 7.526,36.864 L8.119,39.337 C8.243,39.855 8.640,40.255 9.153,40.381 L11.603,40.979 C12.387,41.171 13.79,41.639 13.554,42.297 L15.35,44.352 C15.346,44.785 15.865,45.2 16.388,44.919 L18.877,44.524 C19.52,44.496 19.229,44.482 19.404,44.482 C20.26,44.482 20.640,44.654 21.176,44.984 L23.330,46.310 C23.781,46.587 24.341,46.587 24.792,46.310 L26.946,44.984 C27.634,44.561 28.450,44.397 29.245,44.524 L31.733,44.919 C32.257,45.2 32.775,44.785 33.87,44.353 L34.568,42.298 C35.42,41.639 35.734,41.172 36.518,40.980 L38.968,40.382 C39.482,40.256 39.878,39.856 40.3,39.337 L40.596,36.864 C40.785,36.73 41.249,35.374 41.900,34.896 L43.937,33.400 C44.365,33.86 44.580,32.562 44.498,32.34 L44.106,29.522 C43.981,28.719 44.143,27.895 44.562,27.201 L45.876,25.26 C46.151,24.571 46.151,24.6 45.876,23.551 ZM36.770,37.145 C33.273,40.675 28.644,42.475 23.998,42.475 C20.111,42.475 16.212,41.215 12.952,38.654 C12.517,38.312 12.438,37.679 12.777,37.240 C13.116,36.800 13.743,36.721 14.178,37.63 C20.541,42.62 29.646,41.484 35.358,35.719 C40.270,30.760 41.469,23.225 38.339,16.970 C38.91,16.473 38.288,15.867 38.780,15.616 C39.273,15.365 39.873,15.564 40.122,16.62 C43.641,23.96 42.294,31.568 36.770,37.145 ZM36.794,13.898 C36.518,13.898 36.243,13.783 36.46,13.558 C35.825,13.306 35.594,13.57 35.358,12.819 C35.121,12.580 34.875,12.346 34.626,12.124 C34.213,11.755 34.174,11.118 34.539,10.702 C34.904,10.284 35.535,10.245 35.948,10.614 C36.228,10.864 36.505,11.126 36.770,11.393 C37.35,11.661 37.295,11.940 37.542,12.223 C37.907,12.640 37.868,13.277 37.455,13.645 C37.265,13.814 37.29,13.898 36.794,13.898 ZM35.745,21.153 C35.965,21.836 35.777,22.564 35.254,23.52 L30.812,27.199 L31.991,33.189 C32.130,33.894 31.858,34.595 31.282,35.18 C30.706,35.440 29.962,35.485 29.340,35.133 L24.61,32.150 L18.782,35.133 C18.503,35.291 18.200,35.369 17.898,35.369 C17.527,35.369 17.158,35.251 16.840,35.18 C16.264,34.595 15.992,33.894 16.131,33.189 L17.310,27.199 L12.868,23.52 C12.345,22.564 12.157,21.836 12.377,21.153 C12.597,20.469 13.173,19.992 13.881,19.907 L19.889,19.188 L22.423,13.642 C22.721,12.989 23.349,12.583 24.61,12.583 C24.773,12.583 25.401,12.989 25.699,13.642 L28.234,19.188 L34.241,19.907 C34.949,19.992 35.525,20.469 35.745,21.153 ZM27.443,21.123 C27.98,21.82 26.800,20.863 26.654,20.544 L24.61,14.869 L21.468,20.544 C21.323,20.863 21.24,21.82 20.679,21.123 L14.531,21.859 L19.76,26.102 C19.331,26.340 19.445,26.695 19.377,27.39 L18.171,33.168 L23.573,30.116 C23.725,30.30 23.893,29.987 24.61,29.987 C24.229,29.987 24.397,30.30 24.549,30.116 L29.951,33.168 L28.745,27.39 C28.677,26.695 28.791,26.340 29.46,26.102 L33.591,21.859 L27.443,21.123 ZM31.248,9.810 C25.51,6.649 17.586,7.858 12.672,12.819 C6.961,18.584 6.388,27.775 11.340,34.198 C11.679,34.638 11.601,35.271 11.166,35.613 C10.983,35.756 10.767,35.826 10.553,35.826 C10.256,35.826 9.961,35.692 9.764,35.437 C4.195,28.212 4.838,17.876 11.259,11.394 C16.785,5.816 25.180,4.457 32.149,8.12 C32.641,8.262 32.839,8.868 32.590,9.365 C32.341,9.862 31.740,10.62 31.248,9.810 Z"/>
</svg>