<svg 
 xmlns="http://www.w3.org/2000/svg"
 xmlns:xlink="http://www.w3.org/1999/xlink"
 width="73px" height="52px">
<path fill-rule="evenodd"  fill="rgb(163, 187, 200)"
 d="M55.499,17.624 C64.819,17.624 72.374,25.180 72.374,34.499 C72.374,43.819 64.819,51.374 55.499,51.374 C46.180,51.374 38.624,43.819 38.624,34.499 C38.624,25.180 46.180,17.624 55.499,17.624 Z"/>
<path fill-rule="evenodd"  fill="rgb(36, 63, 77)"
 d="M41.619,27.458 C42.173,27.458 42.622,27.901 42.622,28.448 C42.622,28.995 42.173,29.438 41.619,29.438 L26.655,29.438 C26.101,29.438 25.653,28.995 25.653,28.448 C25.653,27.901 26.102,27.458 26.655,27.458 L41.619,27.458 ZM24.517,20.989 C24.261,20.989 24.4,20.893 23.809,20.700 L18.464,15.419 C18.73,15.32 18.73,14.405 18.464,14.18 C18.855,13.632 19.490,13.632 19.881,14.18 L24.517,18.599 L33.429,9.794 C33.820,9.408 34.455,9.408 34.846,9.794 C35.237,10.181 35.237,10.808 34.846,11.194 L25.226,20.700 C25.30,20.893 24.774,20.989 24.517,20.989 ZM62.997,33.662 L59.722,33.662 C59.722,33.685 59.724,33.706 59.724,33.729 C59.724,37.186 56.876,39.999 53.377,39.999 C49.878,39.999 47.31,37.186 47.31,33.729 C47.31,33.707 47.32,33.685 47.32,33.662 L24.449,33.662 C24.449,33.685 24.450,33.706 24.450,33.729 C24.450,37.186 21.603,39.999 18.104,39.999 C14.604,39.999 11.757,37.186 11.757,33.729 C11.757,33.707 11.759,33.685 11.759,33.662 L6.346,33.662 C5.204,33.662 4.275,32.744 4.275,31.616 L4.275,29.438 L1.2,29.438 C0.448,29.438 0.0,28.995 0.0,28.448 C0.0,27.901 0.448,27.458 1.2,27.458 L10.622,27.458 C11.175,27.458 11.624,27.901 11.624,28.448 C11.624,28.995 11.175,29.438 10.622,29.438 L6.279,29.438 L6.279,31.616 C6.279,31.653 6.309,31.682 6.346,31.682 L12.106,31.682 C12.967,29.227 15.329,27.458 18.104,27.458 C20.878,27.458 23.241,29.227 24.102,31.682 L44.893,31.682 L44.893,24.224 C44.893,23.677 45.341,23.234 45.895,23.234 C46.448,23.234 46.897,23.677 46.897,24.224 L46.897,31.683 L47.379,31.683 C48.240,29.227 50.603,27.458 53.377,27.458 C56.151,27.458 58.514,29.227 59.375,31.683 L61.995,31.683 L61.995,27.326 L60.859,27.326 C59.128,27.326 57.719,25.934 57.719,24.224 L57.719,22.112 C57.719,21.565 58.168,21.121 58.722,21.121 L61.838,21.121 C61.413,19.821 60.178,18.878 58.724,18.877 C58.723,18.877 58.722,18.877 58.721,18.877 C58.720,18.877 58.719,18.877 58.718,18.877 L46.897,18.877 L46.897,20.0 C46.897,20.546 46.448,20.989 45.895,20.989 C45.341,20.989 44.893,20.546 44.893,20.0 L44.893,2.45 C44.893,2.9 44.863,1.979 44.826,1.979 L6.346,1.979 C6.309,1.979 6.279,2.9 6.279,2.45 L6.279,19.999 C6.279,20.546 5.830,20.989 5.277,20.989 C4.724,20.989 4.275,20.546 4.275,19.999 L4.275,2.45 C4.275,0.917 5.204,0.0 6.346,0.0 L44.826,0.0 C45.968,0.0 46.897,0.917 46.897,2.45 L46.897,4.224 L54.446,4.224 C56.767,4.224 58.655,6.89 58.655,8.382 L58.655,9.438 C58.655,9.914 58.315,10.311 57.862,10.406 L59.519,16.957 C62.52,17.337 63.999,19.504 63.999,22.111 L63.999,32.672 C63.999,33.219 63.551,33.662 62.997,33.662 ZM18.104,29.438 C15.709,29.438 13.761,31.363 13.761,33.729 C13.761,36.94 15.709,38.19 18.104,38.19 C20.498,38.19 22.446,36.94 22.446,33.729 C22.446,31.363 20.498,29.438 18.104,29.438 ZM53.377,29.438 C50.983,29.438 49.35,31.363 49.35,33.729 C49.35,36.94 50.983,38.19 53.377,38.19 C55.772,38.19 57.720,36.94 57.720,33.729 C57.720,31.363 55.772,29.438 53.377,29.438 ZM56.651,8.382 C56.651,7.181 55.662,6.204 54.446,6.204 L46.897,6.204 L46.897,8.448 L56.651,8.448 L56.651,8.382 ZM55.802,10.428 L46.897,10.428 L46.897,16.897 L57.438,16.897 L55.802,10.428 ZM61.995,23.102 L59.724,23.102 L59.724,24.224 C59.724,24.842 60.233,25.346 60.860,25.346 L61.995,25.346 L61.995,23.102 ZM53.377,35.775 C52.235,35.775 51.306,34.857 51.306,33.729 C51.306,32.601 52.235,31.683 53.377,31.683 C54.519,31.683 55.448,32.601 55.448,33.729 C55.448,34.857 54.519,35.775 53.377,35.775 ZM18.104,35.775 C16.962,35.775 16.33,34.857 16.33,33.729 C16.33,32.601 16.962,31.683 18.104,31.683 C19.246,31.683 20.175,32.601 20.175,33.729 C20.175,34.857 19.246,35.775 18.104,35.775 ZM16.968,24.224 C16.968,24.771 16.519,25.214 15.966,25.214 L3.139,25.214 C2.586,25.214 2.137,24.771 2.137,24.224 C2.137,23.677 2.586,23.234 3.139,23.234 L15.966,23.234 C16.519,23.234 16.968,23.677 16.968,24.224 Z"/>
</svg>