<svg 
 xmlns="http://www.w3.org/2000/svg"
 xmlns:xlink="http://www.w3.org/1999/xlink"
 width="22px" height="18px">
<path fill-rule="evenodd"  fill="rgb(163, 187, 200)"
 d="M21.989,5.820 C21.906,4.268 21.250,2.812 20.141,1.719 C19.15,0.609 17.545,0.1 16.1,0.1 C13.690,0.1 12.54,1.784 11.175,2.743 C11.125,2.798 11.71,2.856 11.18,2.913 C10.990,2.881 10.962,2.849 10.935,2.819 C10.132,1.903 8.460,0.1 5.998,0.1 C4.454,0.1 2.984,0.609 1.859,1.719 C0.749,2.812 0.93,4.268 0.10,5.820 C0.71,7.361 0.319,8.700 1.280,10.157 C2.142,11.465 4.384,13.532 6.43,14.905 C7.748,16.316 9.994,17.998 11.9,17.998 C12.40,17.998 14.278,16.319 15.974,14.911 C17.619,13.544 19.850,11.479 20.719,10.157 C21.366,9.173 22.95,7.791 21.989,5.820 ZM19.613,9.430 C18.981,10.390 17.201,12.165 15.183,13.847 C12.777,15.852 11.352,16.642 11.10,16.673 C10.669,16.638 9.241,15.840 6.822,13.831 C4.792,12.145 3.9,10.377 2.386,9.429 C1.590,8.223 1.265,7.131 1.332,5.891 C1.466,3.372 3.560,1.321 5.998,1.321 C7.860,1.321 9.214,2.864 9.941,3.691 C10.368,4.179 10.604,4.447 11.0,4.447 C11.408,4.447 11.672,4.160 12.150,3.637 C12.944,2.771 14.272,1.321 16.1,1.321 C18.440,1.321 20.533,3.372 20.667,5.891 C20.735,7.145 20.419,8.203 19.613,9.430 Z"/>
</svg>