<svg 
 xmlns="http://www.w3.org/2000/svg"
 xmlns:xlink="http://www.w3.org/1999/xlink"
 width="22px" height="20px">
<path fill-rule="evenodd"  fill="rgb(255, 255, 255)"
 d="M21.934,5.215 L18.217,13.775 C18.81,14.74 17.796,14.264 17.471,14.264 L7.256,14.264 C6.890,14.264 6.565,14.20 6.470,13.666 L3.146,1.628 L0.813,1.628 C0.366,1.628 0.0,1.261 0.0,0.814 C0.0,0.365 0.366,0.2 0.813,0.2 L3.757,0.2 C4.123,0.2 4.449,0.243 4.544,0.596 L7.867,12.633 L16.928,12.633 L19.940,5.705 L9.902,5.705 C9.454,5.705 9.88,5.338 9.88,4.889 C9.88,4.440 9.454,4.73 9.902,4.73 L21.187,4.73 C21.459,4.73 21.716,4.210 21.866,4.440 C22.15,4.672 22.42,4.957 21.934,5.215 ZM6.483,16.302 C7.501,16.302 8.328,17.131 8.328,18.150 C8.328,19.169 7.501,19.998 6.483,19.998 C5.466,19.998 4.639,19.169 4.639,18.150 C4.639,17.131 5.466,16.302 6.483,16.302 ZM17.891,16.302 C18.909,16.234 19.790,17.8 19.858,18.15 C19.885,18.517 19.736,18.993 19.411,19.359 C19.85,19.740 18.637,19.957 18.149,19.998 C18.108,19.998 18.54,19.998 18.13,19.998 C17.50,19.998 16.250,19.237 16.182,18.272 C16.114,17.267 16.874,16.370 17.891,16.302 Z"/>
</svg>