<svg 
 xmlns="http://www.w3.org/2000/svg"
 xmlns:xlink="http://www.w3.org/1999/xlink"
 width="20px" height="20px">
<path fill-rule="evenodd"  fill="rgb(163, 187, 200)"
 d="M19.450,19.448 C18.719,20.180 17.531,20.180 16.799,19.448 L12.210,14.860 C13.273,14.177 14.178,13.272 14.861,12.208 L19.450,16.798 C20.182,17.530 20.182,18.718 19.450,19.448 ZM7.499,14.998 C3.358,14.998 0.0,11.640 0.0,7.498 C0.0,3.357 3.358,0.2 7.499,0.2 C11.641,0.2 14.999,3.357 14.999,7.498 C14.999,11.640 11.641,14.998 7.499,14.998 ZM7.499,1.872 C4.398,1.872 1.874,4.396 1.874,7.498 C1.874,10.600 4.398,13.123 7.499,13.123 C10.601,13.123 13.124,10.600 13.124,7.498 C13.124,4.396 10.601,1.872 7.499,1.872 ZM4.374,7.498 L3.124,7.498 C3.124,5.86 5.87,3.123 7.499,3.123 L7.499,4.373 C5.776,4.373 4.374,5.775 4.374,7.498 Z"/>
</svg>